<svg xmlns="http://www.w3.org/2000/svg" viewBox="0 0 126 93" role="img" aria-label="Dulce29 · Inspirando hábitos"><path fill="#FFFFFF" fill-rule="evenodd" d="M62.40,40.50 60.50,41.10 58.30,42.50 57.10,43.80 56.20,45.80 55.80,47.70 55.70,51.50 55.80,66.20 56.20,69.40 57.60,71.70 58.70,72.70 60.10,73.60 62.10,74.10 63.50,74.10 65.60,73.60 68.10,72.20 69.10,71.20 69.80,70.00 70.50,67.80 70.70,64.80 70.50,63.70 69.90,63.00 69.00,62.60 66.70,62.60 66.20,62.80 65.50,63.50 65.30,64.20 65.20,67.10 65.00,67.60 64.10,68.40 63.10,68.70 62.30,68.50 61.50,67.80 61.20,67.10 61.00,64.40 61.10,47.60 61.50,46.80 62.40,46.10 63.40,46.00 64.00,46.30 64.80,47.20 65.10,47.90 65.50,51.40 65.80,51.70 66.80,52.10 68.80,52.10 70.00,51.60 70.50,50.90 70.60,47.40 70.30,46.00 69.60,44.30 68.00,42.40 66.10,41.20 63.70,40.50ZM42.50,40.60 41.50,41.30 41.10,42.30 41.20,72.90 41.40,73.40 41.90,73.90 42.40,74.10 45.00,74.10 45.70,74.30 51.10,74.10 52.10,73.60 52.60,72.80 52.70,70.50 52.30,69.40 51.60,68.90 48.80,69.10 47.30,68.70 46.60,68.10 46.30,67.10 46.20,41.70 45.80,41.00 45.00,40.50ZM23.30,40.60 22.70,40.90 22.00,41.80 21.80,43.80 22.00,45.90 22.00,58.90 22.20,60.50 23.50,62.80 25.10,64.50 25.80,65.00 27.70,65.70 30.10,65.70 31.40,65.50 33.30,64.60 34.80,63.10 35.50,62.10 36.40,59.90 36.80,57.50 36.70,41.90 36.50,41.40 36.00,40.90 35.10,40.50 32.70,40.60 31.80,41.00 31.40,41.50 31.20,58.30 31.00,59.20 30.50,59.90 30.10,60.10 28.90,60.10 27.90,59.50 27.60,59.00 27.30,57.70 27.10,42.00 26.80,41.30 26.10,40.70 25.30,40.50ZM4.80,40.50 3.50,41.10 2.90,42.10 2.80,72.20 3.50,73.60 4.90,74.20 9.80,74.20 13.00,73.50 15.10,72.20 16.40,70.70 17.40,68.20 17.40,46.60 16.70,44.60 15.50,42.80 14.60,42.00 13.30,41.30 10.60,40.60ZM9.50,45.90 10.50,46.00 11.70,47.00 12.10,47.80 12.30,48.90 12.10,66.90 11.80,67.80 11.20,68.40 10.00,68.80 8.80,68.60 8.30,68.10 8.00,67.30 8.00,46.80 8.40,46.20ZM75.90,40.50 75.60,40.60 74.90,41.40 74.60,43.60 74.50,51.50 74.70,62.60 74.50,66.70 74.70,72.90 75.30,73.80 76.60,74.20 84.80,74.10 85.60,73.60 86.00,72.70 85.90,70.70 85.60,70.30 84.90,70.00 85.10,69.20 84.50,68.80 83.50,69.00 80.90,68.80 80.20,68.20 79.90,67.30 79.80,62.00 80.10,60.50 80.90,60.00 83.40,59.80 84.00,59.40 84.50,58.30 84.50,56.60 84.10,55.40 83.30,54.90 80.90,54.40 80.00,53.50 79.90,46.80 80.00,46.50 80.80,45.90 84.60,45.70 85.50,45.30 86.00,44.10 85.90,41.70 85.70,41.20 85.20,40.70 84.20,40.40ZM48.80,24.40 48.70,24.90 49.00,25.50 50.60,27.70 53.00,30.30 54.50,31.20 56.30,31.70 57.40,31.50 58.90,30.50 59.40,30.00 60.00,28.90 60.20,27.70 59.40,25.90 58.10,24.50 56.40,23.80 55.60,22.80 54.40,23.30 53.60,23.40 53.20,23.80 53.70,24.50 54.60,24.90 55.80,26.10 55.90,26.50 55.50,26.90 54.50,26.70 51.20,24.40ZM61.50,23.00 61.50,23.70 62.70,25.40 65.80,28.80 67.50,29.90 69.30,30.30 71.10,30.10 72.80,29.30 74.00,28.40 74.70,27.60 74.90,26.90 74.90,25.80 74.50,24.80 72.50,23.40 68.30,22.60 64.30,22.20 62.50,22.30 62.00,22.50ZM66.20,25.30 66.80,24.90 67.50,25.00 68.30,25.60 69.50,26.00 69.70,26.20 69.70,26.60 69.20,26.90 68.60,26.80 67.60,26.10 66.60,25.90ZM81.30,15.90 80.80,15.30 80.10,15.00 79.10,14.90 77.20,15.20 75.60,15.80 73.80,16.90 73.50,17.50 73.90,18.00 73.40,18.20 73.30,18.50 73.90,19.20 75.10,19.70 78.10,19.70 79.10,19.30 80.40,18.30 81.20,16.90ZM55.40,6.10 53.60,6.30 52.50,7.20 51.40,9.40 51.10,10.50 50.80,12.50 51.00,17.30 52.00,21.10 53.10,20.50 54.20,20.50 54.80,20.70 54.90,19.70 55.60,17.90 55.70,15.70 56.10,14.20 56.10,6.90 55.90,6.40ZM55.10,6.50 55.50,6.90 55.40,10.00 55.10,10.40 54.40,10.40 54.10,10.70 54.10,13.50 54.30,14.40 54.20,17.20 54.00,18.00 53.40,18.30 52.90,17.80 52.70,14.80 52.90,11.80 53.50,9.90 53.50,7.50 54.00,6.80 54.60,6.50ZM75.30,4.50 74.00,3.50 71.40,2.90 70.60,2.90 69.00,3.30 66.80,4.50 64.70,6.70 63.00,9.10 62.20,10.60 60.10,15.30 59.30,18.10 59.30,19.60 59.90,19.70 61.20,19.30 62.40,18.00 63.80,15.00 64.50,14.10 65.10,12.80 65.80,12.10 67.00,9.60 69.10,6.30 69.90,5.40 70.40,5.20 70.70,5.40 70.80,5.90 68.00,10.70 66.50,12.70 66.00,14.30 64.90,16.00 64.30,16.60 64.00,17.50 64.00,18.30 64.30,18.50 65.10,18.50 66.80,17.70 67.90,17.70 68.50,17.90 69.10,17.90 69.40,17.70 69.80,17.10 69.90,16.40 71.20,15.20 72.40,14.50 74.20,12.40 75.40,10.10 76.00,8.00 76.00,6.20Z"/><path fill="#CFE8C9" fill-rule="evenodd" d="M36.90,70.70 36.30,69.40 35.10,69.00 32.40,68.90 29.30,69.20 22.60,69.00 21.90,69.30 21.40,70.10 21.40,72.70 21.60,73.20 22.10,73.70 22.70,73.90 35.70,73.90 36.30,73.70 36.80,73.10ZM94.40,41.20 93.40,41.60 92.10,42.50 91.10,43.70 90.20,45.40 89.70,47.50 89.80,51.20 90.50,51.90 91.50,52.20 93.10,52.10 94.10,51.70 94.50,51.30 94.80,50.40 94.90,47.20 95.70,46.20 96.80,45.80 98.00,46.30 98.90,47.20 99.20,47.80 99.20,51.40 98.50,53.20 97.20,55.10 92.60,59.60 91.30,61.30 90.20,63.50 89.80,65.50 89.80,67.60 89.60,68.40 89.70,71.90 90.10,73.30 90.60,73.80 91.20,74.00 103.10,74.00 103.90,73.40 104.20,72.30 104.10,70.40 103.80,69.60 103.40,69.20 95.70,69.00 94.90,68.20 94.80,65.80 95.90,63.50 98.10,61.10 101.20,58.30 102.50,56.50 103.50,54.60 103.80,53.70 104.10,51.50 104.10,47.00 103.80,45.40 102.60,43.20 101.60,42.30 100.20,41.50 98.90,41.10 96.90,40.80ZM116.70,40.60 114.60,40.90 112.80,41.40 111.20,42.40 110.30,43.30 109.30,45.00 108.40,49.10 108.40,50.80 108.60,51.70 108.60,56.70 109.60,59.40 111.40,61.60 112.70,62.40 114.60,62.90 117.10,62.90 117.60,63.10 118.10,63.90 118.20,67.20 117.90,67.90 116.50,68.90 115.90,69.00 114.60,68.30 114.10,67.80 113.70,66.60 112.80,66.00 109.80,66.00 109.10,66.30 108.50,67.20 108.60,68.10 109.60,70.30 111.50,72.70 113.00,73.60 115.40,74.00 116.80,73.90 118.30,73.50 120.10,72.50 121.50,71.40 122.70,69.30 123.10,66.10 123.00,47.30 122.70,45.40 122.40,44.60 121.60,43.40 120.60,42.30 118.90,41.30ZM115.40,45.80 116.20,45.80 117.10,46.30 117.90,47.10 118.30,48.20 118.10,56.00 117.80,56.60 116.70,57.70 116.00,58.00 115.40,57.90 114.10,56.80 113.80,56.10 113.80,47.40 114.10,46.70 114.70,46.10ZM66.30,25.30 66.60,25.80 67.60,26.00 68.60,26.70 69.20,26.80 69.60,26.60 69.50,26.10 68.50,25.80 67.50,25.10 66.80,25.00ZM55.00,6.60 54.20,6.80 53.60,7.50 53.60,9.90 53.00,11.80 52.80,14.80 53.00,17.80 53.40,18.20 53.90,18.00 54.10,17.20 54.20,14.40 54.00,13.50 54.00,10.70 54.40,10.30 55.00,10.30 55.30,9.90 55.40,7.00ZM70.70,5.60 70.40,5.30 69.90,5.50 69.00,6.60 68.70,7.30 67.10,9.60 65.90,12.10 65.20,12.80 64.60,14.10 63.90,15.00 62.50,18.00 61.20,19.40 59.80,19.80 58.80,21.00 55.50,21.30 54.20,20.60 53.10,20.60 51.60,21.60 49.50,21.60 48.20,21.30 47.20,21.50 36.70,21.40 36.00,21.60 35.90,22.10 36.50,22.50 37.70,22.80 40.50,23.00 42.80,23.40 47.40,23.50 48.70,24.20 51.20,24.30 54.50,26.60 55.50,26.80 55.80,26.50 55.70,26.10 54.60,25.00 53.70,24.60 53.20,24.10 53.10,23.80 53.40,23.40 54.70,23.10 55.70,22.20 56.20,22.00 58.10,21.70 60.10,20.90 62.20,20.60 63.70,19.90 65.50,19.60 66.90,18.80 68.00,18.80 68.60,18.50 68.60,18.10 68.30,17.90 66.80,17.80 65.10,18.60 64.30,18.60 63.90,18.30 63.90,17.50 64.20,16.60 64.80,16.00 65.90,14.30 66.40,12.70 67.50,11.30 69.10,8.50 69.90,7.50Z"/><text x="2.2" y="90.4" font-family="Arial,Helvetica,sans-serif" font-weight="700" font-size="7.6" fill="#FFFFFF" textLength="121" lengthAdjust="spacing">INSPIRANDO HÁBITOS</text></svg>